<?xml version="1.0" encoding="UTF-8" standalone="no"?>
<!-- Created with Inkscape (http://www.inkscape.org/) -->

<svg
   width="60"
   height="33.9412"
   viewBox="0 0 15.875001 8.980276"
   version="1.1"
   id="svg5"
   xml:space="preserve"
   inkscape:version="1.2.1 (9c6d41e410, 2022-07-14)"
   sodipodi:docname="idee-logo.svg"
   xmlns:inkscape="http://www.inkscape.org/namespaces/inkscape"
   xmlns:sodipodi="http://sodipodi.sourceforge.net/DTD/sodipodi-0.dtd"
   xmlns:xlink="http://www.w3.org/1999/xlink"
   xmlns="http://www.w3.org/2000/svg"
   xmlns:svg="http://www.w3.org/2000/svg"><sodipodi:namedview
     id="namedview7"
     pagecolor="#ffffff"
     bordercolor="#000000"
     borderopacity="0.25"
     inkscape:showpageshadow="2"
     inkscape:pageopacity="0.0"
     inkscape:pagecheckerboard="0"
     inkscape:deskcolor="#d1d1d1"
     inkscape:document-units="mm"
     showgrid="false"
     inkscape:zoom="5.6568544"
     inkscape:cx="-2.2097086"
     inkscape:cy="25.544232"
     inkscape:window-width="1920"
     inkscape:window-height="1051"
     inkscape:window-x="-9"
     inkscape:window-y="-9"
     inkscape:window-maximized="1"
     inkscape:current-layer="g666" /><defs
     id="defs2"><rect
       x="70"
       y="-260"
       width="20"
       height="178"
       id="rect28055" /><linearGradient
       inkscape:collect="always"
       id="linearGradient9699"><stop
         style="stop-color:#00d9c7;stop-opacity:1;"
         offset="0"
         id="stop9695" /><stop
         style="stop-color:#00d9c7;stop-opacity:0;"
         offset="1"
         id="stop9697" /></linearGradient><linearGradient
       inkscape:collect="always"
       id="linearGradient8697"><stop
         style="stop-color:#00dbc8;stop-opacity:0.9383117;"
         offset="0"
         id="stop8693" /><stop
         style="stop-color:#00cfbd;stop-opacity:0;"
         offset="1"
         id="stop8695" /></linearGradient><linearGradient
       inkscape:collect="always"
       id="linearGradient8663"><stop
         style="stop-color:#00dbc8;stop-opacity:1;"
         offset="0"
         id="stop8659" /><stop
         style="stop-color:#00cfbd;stop-opacity:0;"
         offset="1"
         id="stop8661" /></linearGradient><linearGradient
       inkscape:collect="always"
       id="linearGradient8113"><stop
         style="stop-color:#009b8d;stop-opacity:1;"
         offset="0"
         id="stop8109" /><stop
         style="stop-color:#00bbab;stop-opacity:0;"
         offset="1"
         id="stop8111" /></linearGradient><linearGradient
       inkscape:collect="always"
       id="linearGradient7827"><stop
         style="stop-color:#00aa9a;stop-opacity:1;"
         offset="0"
         id="stop7823" /><stop
         style="stop-color:#00bbab;stop-opacity:0;"
         offset="1"
         id="stop7825" /></linearGradient><linearGradient
       inkscape:collect="always"
       id="linearGradient7764"><stop
         style="stop-color:#00bbab;stop-opacity:1;"
         offset="0"
         id="stop7760" /><stop
         style="stop-color:#00a092;stop-opacity:0;"
         offset="1"
         id="stop7762" /></linearGradient><linearGradient
       inkscape:collect="always"
       id="linearGradient5390"><stop
         style="stop-color:#009b8d;stop-opacity:1;"
         offset="0"
         id="stop5386" /><stop
         style="stop-color:#00a597;stop-opacity:0;"
         offset="1"
         id="stop5388" /></linearGradient><linearGradient
       inkscape:collect="always"
       id="linearGradient5310"><stop
         style="stop-color:#00b2a3;stop-opacity:1;"
         offset="0"
         id="stop5306" /><stop
         style="stop-color:#00bbab;stop-opacity:0.07792208;"
         offset="1"
         id="stop5308" /></linearGradient><linearGradient
       inkscape:collect="always"
       id="linearGradient4934"><stop
         style="stop-color:#00bbab;stop-opacity:1;"
         offset="0"
         id="stop4930" /><stop
         style="stop-color:#00a496;stop-opacity:0.91558439;"
         offset="1"
         id="stop4932" /></linearGradient><linearGradient
       inkscape:collect="always"
       id="linearGradient4653"><stop
         style="stop-color:#00a496;stop-opacity:1;"
         offset="0"
         id="stop4649" /><stop
         style="stop-color:#00a496;stop-opacity:0;"
         offset="1"
         id="stop4651" /></linearGradient><linearGradient
       inkscape:collect="always"
       xlink:href="#linearGradient4653"
       id="linearGradient4655"
       x1="117.98763"
       y1="90.52076"
       x2="133.70798"
       y2="103.175"
       gradientUnits="userSpaceOnUse"
       gradientTransform="translate(342.70537,-196.9795)" /><linearGradient
       inkscape:collect="always"
       xlink:href="#linearGradient4934"
       id="linearGradient4936"
       x1="145.19241"
       y1="123.21204"
       x2="149.51144"
       y2="129.9761"
       gradientUnits="userSpaceOnUse"
       gradientTransform="translate(342.70537,-196.9795)" /><linearGradient
       inkscape:collect="always"
       xlink:href="#linearGradient5310"
       id="linearGradient5312"
       x1="86.308716"
       y1="173.73653"
       x2="85.776825"
       y2="152.28566"
       gradientUnits="userSpaceOnUse"
       gradientTransform="translate(342.70537,-196.9795)" /><radialGradient
       inkscape:collect="always"
       xlink:href="#linearGradient5390"
       id="radialGradient7544"
       cx="81.266373"
       cy="101.02904"
       fx="81.266373"
       fy="101.02904"
       r="9.0776129"
       gradientTransform="matrix(0.61081092,1.2536811,-2.0330833,0.99054649,582.7623,-294.91879)"
       gradientUnits="userSpaceOnUse" /><radialGradient
       inkscape:collect="always"
       xlink:href="#linearGradient8113"
       id="radialGradient8117"
       cx="76.845886"
       cy="199.87993"
       fx="76.845886"
       fy="199.87993"
       r="23.215149"
       gradientTransform="matrix(0.8427859,0.03586513,-0.0199936,0.4687721,358.79983,-93.666474)"
       gradientUnits="userSpaceOnUse" /><linearGradient
       inkscape:collect="always"
       xlink:href="#linearGradient7827"
       id="linearGradient8121"
       x1="69.574921"
       y1="245.8705"
       x2="70.227188"
       y2="236.48627"
       gradientUnits="userSpaceOnUse"
       gradientTransform="matrix(1,0,0,1.1817902,342.70537,-238.22106)" /><linearGradient
       inkscape:collect="always"
       xlink:href="#linearGradient7827"
       id="linearGradient8125"
       gradientUnits="userSpaceOnUse"
       x1="68.717453"
       y1="243.65659"
       x2="71.332596"
       y2="227.44922"
       gradientTransform="matrix(-1.2875441,0,0,1.1193696,567.76945,-222.67856)" /><radialGradient
       inkscape:collect="always"
       xlink:href="#linearGradient7764"
       id="radialGradient8412"
       cx="167.12233"
       cy="164.2202"
       fx="167.12233"
       fy="164.2202"
       r="19.587988"
       gradientTransform="matrix(1.3444369,-0.77654999,0.40174501,0.69553902,218.13682,-13.707193)"
       gradientUnits="userSpaceOnUse" /><linearGradient
       inkscape:collect="always"
       xlink:href="#linearGradient8663"
       id="linearGradient8665"
       x1="67.341003"
       y1="77.411079"
       x2="48.834015"
       y2="188.95956"
       gradientUnits="userSpaceOnUse" /><filter
       inkscape:label="Evanescent"
       inkscape:menu="Blurs"
       inkscape:menu-tooltip="Blur the contents of objects, preserving the outline and adding progressive transparency at edges"
       style="color-interpolation-filters:sRGB"
       id="filter8689"
       x="-0.059196094"
       y="-0.083198564"
       width="1.1183922"
       height="1.1663971"><feGaussianBlur
         result="result6"
         stdDeviation="3"
         in="SourceGraphic"
         id="feGaussianBlur8683" /><feColorMatrix
         values="1 0 0 0 0 0 1 0 0 0 0 0 1 0 0 0 0 0 1 0 "
         result="result7"
         in="SourceGraphic"
         id="feColorMatrix8685" /><feComposite
         operator="in"
         in="result6"
         in2="result7"
         id="feComposite8687" /></filter><linearGradient
       inkscape:collect="always"
       xlink:href="#linearGradient8697"
       id="linearGradient8691"
       gradientUnits="userSpaceOnUse"
       x1="98.008461"
       y1="101.94504"
       x2="53.004787"
       y2="151.17728"
       gradientTransform="translate(342.70537,-196.9795)" /><linearGradient
       inkscape:collect="always"
       xlink:href="#linearGradient9699"
       id="linearGradient9701"
       x1="57.518898"
       y1="181.69411"
       x2="60.307339"
       y2="192.43506"
       gradientUnits="userSpaceOnUse"
       gradientTransform="translate(342.60704,-195.50566)" /><radialGradient
       inkscape:collect="always"
       xlink:href="#linearGradient9148"
       id="radialGradient10248"
       cx="143.2189"
       cy="28.587496"
       fx="143.2189"
       fy="28.587496"
       r="6.4880757"
       gradientUnits="userSpaceOnUse"
       gradientTransform="matrix(2.2868291,-0.0056864,0.00611385,2.4587307,-343.17102,-56.742817)" /><linearGradient
       inkscape:collect="always"
       id="linearGradient9148"><stop
         style="stop-color:#12001c;stop-opacity:1;"
         offset="0"
         id="stop9144" /><stop
         style="stop-color:#700089;stop-opacity:1;"
         offset="1"
         id="stop9146" /></linearGradient></defs><g
     inkscape:label="logo-photo"
     inkscape:groupmode="layer"
     id="g666"
     transform="matrix(0.12769813,0,0,0.12769813,-6.0647005,-10.679458)"
     style="stroke-width:29.2356"><path
       id="path660"
       style="display:inline;fill:#ffffff;fill-rule:evenodd;stroke-width:24.276;stroke-linecap:round;stroke-miterlimit:0;paint-order:fill markers stroke"
       d="M 50.056376,85.095581 V 152.50439 H 169.18967 l 0.0295,-5.70065 -113.460259,0.0885 -0.0295,-61.796649 z"
       sodipodi:nodetypes="ccccccc" /><path
       id="circle662"
       style="fill:#ffffff;fill-rule:evenodd;stroke-width:24.276;stroke-linecap:round;stroke-miterlimit:0;paint-order:fill markers stroke"
       d="M 109.7992,90.832978 A 25.572531,25.572531 0 0 0 84.226918,116.40571 25.572531,25.572531 0 0 0 109.7992,141.978 25.572531,25.572531 0 0 0 135.37194,116.40571 25.572531,25.572531 0 0 0 109.7992,90.832978 Z m 0.0625,4.116464 A 21.310442,21.310442 0 0 1 131.17216,116.2599 21.310442,21.310442 0 0 1 109.8617,137.57037 21.310442,21.310442 0 0 1 88.55123,116.2599 21.310442,21.310442 0 0 1 109.8617,94.949442 Z" /></g><g
     inkscape:groupmode="layer"
     id="layer6-02"
     inkscape:label="C logo"
     transform="matrix(0.24423861,0,0,0.24423861,-3.0143877,4.454774)"
     style="display:inline;stroke-width:8.36502"
     sodipodi:insensitive="true"><path
       id="path9119"
       style="fill:url(#radialGradient10248);fill-opacity:1;fill-rule:evenodd;stroke:none;stroke-width:1.90386;stroke-dasharray:none;stroke-dashoffset:0"
       d="m -17.57338,0.30359348 c -2.918798,-0.00187 -5.84679,1.42475842 -7.825252,4.03951872 -4.005194,5.2933198 -3.03668,13.3799828 1.641059,17.7383038 5.315191,4.952203 13.373564,3.715556 17.689305,-2.174765 1.801753,-2.459164 2.85775,-5.548705 3.017352,-8.721691 l -5.314597,0.02923 c -0.144623,1.883931 -0.791749,3.721503 -1.998575,5.233958 -2.618978,3.282237 -7.344969,3.911477 -10.304549,0.824066 -2.351876,-2.453443 -2.780515,-6.82218 -0.434501,-9.4706111 1.760148,-1.9870583 4.847475,-2.320057 6.612335,-0.1483966 0.776136,0.9549924 1.123404,2.3647617 0.856953,3.5899157 l 5.268337,-0.02892 C -8.129825,8.1465334 -9.225263,4.955578 -11.401542,2.8436919 -13.180347,1.1175545 -15.374287,0.30503008 -17.57338,0.30359158 Z m 3.93953,10.93953052 -2.630682,0.01437 -7.7e-5,0.0063 -1.098272,2e-6 c -0.244461,0.268113 -0.327787,0.889107 -0.216916,1.199468 0.468387,1.311253 2.05696,1.245276 2.920139,0.52697 0.547575,-0.455699 0.879308,-1.073277 1.025731,-1.746548 z" /><path
       style="fill:#00004f;fill-opacity:0.994792;fill-rule:evenodd;stroke:none;stroke-width:1.90387;stroke-dasharray:none;stroke-dashoffset:0;stroke-opacity:1;paint-order:fill markers stroke"
       d="m -17.388243,11.2444 3.740563,0.0025 c 0,0 -0.117039,0.433233 -0.21295,0.636956 -0.315987,0.672309 -0.629273,0.942459 -0.867508,1.130813 -0.278423,0.219942 -0.730892,0.431799 -1.183648,0.465807 -0.379181,0.02858 -0.70327,-0.06718 -0.70327,-0.06718 0,0 -0.397608,-0.122364 -0.611707,-0.353562 -0.187148,-0.202003 -0.324416,-0.421868 -0.398892,-0.671594 -0.05421,-0.180463 -0.02145,-0.53378 0.05,-0.786847 0.0362,-0.129529 0.18734,-0.357083 0.18734,-0.357083 z"
       id="path12201"
       sodipodi:nodetypes="ccssscssac" /><path
       style="fill:#000080;fill-opacity:0.994792;fill-rule:evenodd;stroke:none;stroke-width:1.90387;stroke-dasharray:none;stroke-dashoffset:0;stroke-opacity:1;paint-order:fill markers stroke"
       d="m -13.707215,14.983162 0.07451,-3.739806 c 0,0 -0.435555,0.108189 -0.641207,0.199769 -0.678674,0.302072 -0.95522,0.60973 -1.14844,0.844016 -0.225631,0.273862 -0.44676,0.721854 -0.49009,1.173815 -0.0364,0.378503 0.05268,0.704521 0.05268,0.704521 0,0 0.114166,0.400033 0.340889,0.618854 0.198105,0.191266 0.415096,0.333029 0.663235,0.412641 0.179294,0.05787 0.533247,0.03188 0.787707,-0.03373 0.130256,-0.03362 0.360868,-0.180002 0.360868,-0.180002 z"
       id="path10418"
       sodipodi:nodetypes="ccssscssac" /></g><g
     inkscape:groupmode="layer"
     id="layer13"
     inkscape:label="turquoise sp"
     transform="matrix(0.06629093,0,0,0.06673368,-47.609297,5.4632586)"
     style="display:inline;stroke-width:15.0349"
     sodipodi:insensitive="true"><g
       inkscape:groupmode="layer"
       id="layer3-8"
       inkscape:label="P"
       transform="matrix(0.47569689,0,0,0.47602399,436.30104,46.971029)"
       style="fill:#00ccbb;fill-opacity:1;stroke-width:31.5953"><path
         id="path359-1"
         style="fill:#0aeacf;fill-opacity:1;fill-rule:evenodd;stroke-width:315.953;paint-order:fill markers stroke"
         d="m 74.371365,-131.28855 -0.0322,185.380136 30.300145,-0.0258 v -75.711979 l 40.31279,-0.59221 c 71.57264,-4.21545 60.09218,-104.805417 -2.65152,-108.745297 z m 61.542495,24.67446 c 21.99449,-0.0213 30.71624,17.290676 31.18569,31.206876 0.46772,13.86529 -7.69622,28.70794 -32.77164,29.33826 l -29.63282,0.0946 -0.077,-60.609216 z"
         sodipodi:nodetypes="ccccccccscccc" /><text
         xml:space="preserve"
         transform="matrix(0.58331367,0,0,0.58288113,93.945083,-366.06021)"
         id="text28053"
         style="font-style:italic;font-size:32px;font-family:'Century Gothic';-inkscape-font-specification:'Century Gothic Italic';white-space:pre;shape-inside:url(#rect28055);display:inline;opacity:1;fill:#0aeacf;fill-opacity:1;fill-rule:evenodd;stroke-width:541.851;paint-order:fill markers stroke"><tspan
           x="70"
           y="-52.948012"
           id="tspan1239"><tspan
             dx="0 13.625 20.796875 12.421875"
             id="tspan1237">Test</tspan></tspan></text></g><g
       inkscape:groupmode="layer"
       id="layer8-0"
       inkscape:label="S"
       style="fill:#00beae;fill-opacity:1;stroke-width:31.5953"
       transform="matrix(0.47569689,0,0,0.47602399,268.24255,47.905329)"><path
         style="opacity:1;fill:#00bfaf;fill-opacity:1;fill-rule:evenodd;stroke-width:315.953;paint-order:fill markers stroke"
         d="m 471.4285,-71.032074 c 0,0 -0.61873,-9.88883 -2.08178,-14.57243 -1.15664,-3.70271 -2.67619,-7.4668 -5.20444,-10.40888 -1.56851,-1.825251 -6.24006,-4.219626 -6.24006,-4.219626 l -0.036,-8.36303 29.6526,0.005 c 5.50154,6.40734 7.01105,9.420875 6.80914,17.434876 -0.0958,3.51618 -0.76698,7.02716 -1.73481,10.40888 -0.99873,3.48967 -4.16355,10.06191 -4.16355,10.06191 z"
         id="path3085-2"
         sodipodi:nodetypes="cssccccscc" /><path
         style="opacity:1;fill:#00cfbd;fill-opacity:1;fill-rule:evenodd;stroke-width:315.953;paint-order:fill markers stroke"
         d="m 427.62447,-130.70964 c -13.04652,1.93018 -26.22474,5.89992 -35.01091,13.18457 -13.36608,11.08189 -24.3071,27.920536 -24.63435,43.717296 -0.28677,13.84347 2.71551,30.66949 12.19812,40.24766 4.69407,4.741371 10.454,8.638571 16.6542,11.102801 5.12406,2.03652 10.79583,2.60942 16.30725,2.77571 5.34899,0.16139 10.74229,-0.54724 15.96028,-1.73482 6.09899,-1.38809 11.77869,-4.21536 17.69509,-6.24532 9.34025,-3.204711 18.33645,-6.651711 27.23657,-10.929331 6.33207,-3.04335 18.5625,-9.76576 18.5625,-9.76576 0,0 3.88627,-0.48471 6.04028,-1.04089 2.62142,-0.67687 5.76939,-1.67612 8.18519,-2.89837 1.86043,-0.94126 3.62113,-2.11305 5.20444,-3.46963 1.42971,-1.22497 3.57125,-4.28621 3.57125,-4.28621 -7.14017,-7.23993 -12.31653,-8.56501 -21.26635,-10.28622 -2.85875,-0.55482 -5.76466,-0.91554 -8.67406,-1.04088 -6.93667,-0.29883 -13.93329,-0.20656 -20.81776,0.69392 -6.11995,0.80048 -12.11557,2.4398 -18.04206,4.16355 -8.54185,2.83357 -19.15342,7.25756 -28.10397,4.16355 -5.31671,-1.83787 -8.49818,-7.56063 -9.02103,-13.8785 -0.55773,-6.73936 2.67329,-14.86721 7.04959,-19.03575 4.37631,-4.168538 11.02839,-5.490056 11.02839,-5.490056 z"
         id="path3087-8"
         sodipodi:nodetypes="csssssssscsssccsscsszcc" /><path
         id="path3143-7"
         style="opacity:1;fill:#00ccba;fill-opacity:1;fill-rule:evenodd;stroke-width:315.953;paint-order:fill markers stroke"
         d="m 531.33045,-36.642414 c 0,0 -4.57669,3.51336 -7.02096,5.01977 -2.35974,1.45433 -4.78332,2.841131 -7.34794,3.859911 -3.38799,1.34584 -8.23158,2.47463 -10.51243,2.93222 -3.2422,0.86895 -10.49375,1.15852 -10.73838,1.03088 5.61714,22.0319095 -8.55651,46.379559 -37.82387,47.462979 v 28.46871 l -14.59595,-2.9e-4 0.11226,8.6709 c 0,0 26.93696,-0.80487 39.62455,-4.80887 11.03057,-3.48107 21.27703,-8.13698 30.60413,-16.34905 8.09365,-7.12609 14.80627,-16.76465 17.90599,-27.27282 4.61005,-15.6281895 5.30989,-30.317259 -0.20749,-49.01434 z m -126.48153,24.740361 c -7.94563,1.68693 -18.33451,6.1437395 -21.78637,14.8042695 -9.44297,23.6918695 6.79241,45.9637995 28.5823,54.0258795 7.91663,4.38799 31.75945,3.87505 31.75945,3.87505 l -0.11345,-8.66577 -15.68153,-0.009 -0.0739,-27.44 c 0,0 -21.20405,-1.05356 -25.33216,-9.0029 -2.05696,-3.96102 0.22199,-9.7961395 3.59576,-12.8966295 4.501,-4.13639 11.34008,-5.52884 17.35522,-5.19925 8.36835,0.45854 23.27031,9.83091 23.27031,9.83091 0,0 -11.29362,-13.00431 -18.91412,-16.41776 -6.9495,-3.1128995 -14.71588,-4.5917395 -22.66151,-2.9047995 z"
         sodipodi:nodetypes="sssccccccasscscscccccascsac" /><path
         style="opacity:1;fill:url(#linearGradient5312);fill-opacity:1;fill-rule:evenodd;stroke-width:315.953;paint-order:fill markers stroke"
         d="m 371.41446,-50.081134 c 0,0 2.34913,-8.05996 4.09019,-5.97533 1.85492,2.22095 3.59663,2.35661 5.88817,4.12357 2.3467,1.80949 5.14086,2.97195 7.85085,4.17077 3.09901,1.37091 6.25147,0.40968 9.56826,1.10403 3.53015,0.73901 7.61694,0.9822 11.44678,1.21948 4.56461,0.28281 9.0463,0.30239 13.71795,0.24173 4.67165,-0.0607 9.09992,-3.59877 13.76368,-5.06434 3.79767,-1.1934 7.81833,-1.6476 11.552,-3.02828 4.21466,-1.55854 7.82517,-4.58903 12.12688,-5.88816 6.62764,-2.00156 12.962,-2.08001 20.58207,-2.78652 2.63978,-0.24475 17.9355,6.96791 16.81421,12.42488 -1.74799,0.62983 -3.90906,0.84658 -6.14192,0.99153 0,0 -8.21587,4.87713 -12.94168,7.29886 -4.08688,2.09431 -8.37919,3.94371 -12.51231,5.76548 -5.319,2.34447 -10.81333,4.2705 -16.25376,6.317491 -6.21075,2.33684 -12.42738,4.95679 -18.70714,6.80818 -3.2927,0.97075 -6.65815,1.74026 -10.05893,2.20806 -2.47508,0.34047 -4.98457,0.40577 -7.48284,0.42935 -2.12776,0.0201 -4.2607,-0.0424 -6.37884,-0.24535 -2.67685,-0.25655 -5.41273,-0.49769 -7.97355,-1.2267 -2.61461,-0.74431 -5.31243,-2.00321 -7.82982,-3.30156 -2.25349,-1.16225 -4.41433,-2.51534 -6.47172,-3.99729 -1.59069,-1.14577 -3.09232,-2.419681 -4.51647,-3.766841 -1.70625,-1.614 -3.43505,-3.24542 -4.80644,-5.15213 -1.42152,-1.9764 -2.54824,-4.17227 -3.47812,-6.4222 -0.82962,-2.00736 -1.8475,-6.24872 -1.8475,-6.24872 z"
         id="path5304"
         sodipodi:nodetypes="cssssazaaasccssassaasaassacc" /></g><g
       inkscape:groupmode="layer"
       id="layer10"
       inkscape:label="Shadow"
       style="stroke-width:31.5953"
       transform="matrix(0.47569689,0,0,0.47602399,268.24255,47.905329)"><path
         style="opacity:1;fill:url(#linearGradient4655);fill-opacity:1;fill-rule:evenodd;stroke-width:315.953;paint-order:fill markers stroke"
         d="m 462.8896,-97.099597 c 8.18166,6.866603 8.47979,25.887913 8.47979,25.887913 l 3.10585,-0.24639 c -2.70377,-36.066216 18.72972,-32.700426 16.451,-32.813876 l -3.14894,-4.21489 -29.90167,0.0149 0.14371,8.32666 c 1.27,0.587993 3.1228,1.743404 4.87026,3.045703 z"
         id="path4570"
         sodipodi:nodetypes="cccccccc" /><path
         style="opacity:1;fill:url(#linearGradient4936);fill-opacity:1;fill-rule:evenodd;stroke-width:315.953;paint-order:fill markers stroke"
         d="m 493.71626,-86.023384 c 0,0 -1.88506,3.68849 -3.04568,5.39747 -1.2176,1.79288 -2.58668,3.49237 -4.08533,5.05795 -1.43039,1.49428 -6.77788,4.01962 -6.77788,4.01962 2.46496,-0.089 6.92455,0.17084 8.87198,0.33208 0,0 1.5803,-2.95536 2.2155,-4.50286 0.68741,-1.67469 1.19562,-3.41868 1.71739,-5.15213 0.31733,-1.05427 0.64678,-2.109 0.85868,-3.18941 0.1269,-0.647 0.24534,-1.96272 0.24534,-1.96272 z"
         id="path4805"
         sodipodi:nodetypes="cssccsssc" /><path
         style="opacity:1;fill:url(#radialGradient7544);fill-opacity:1;fill-rule:evenodd;stroke-width:315.953;paint-order:fill markers stroke"
         d="m 428.00116,-111.5387 c -8.44579,1.32813 -22.3311,8.19483 -24.18179,15.914436 -0.77674,3.76334 5.29055,19.6291 5.29055,19.6291 0.28358,-2.35876 1.47102,-12.43296 7.00797,-18.7197 2.92607,-2.715782 4.23553,-3.180442 5.26155,-3.764158 0.70817,-0.402894 2.62485,-1.055041 3.69016,-1.426036 1.06531,-0.370992 2.6043,-0.854042 2.6043,-0.854042 z"
         id="path5384"
         sodipodi:nodetypes="ccccszcc" /><path
         style="opacity:1;fill:url(#linearGradient8121);fill-opacity:1;fill-rule:evenodd;stroke-width:315.954;paint-order:fill markers stroke"
         d="m 443.40554,52.104106 -15.85698,0.0675 -0.0102,-13.1669 c -0.0149,-19.35868 -37.91543,-2.20365 -41.54368,-2.72562 6.41344,10.59213 15.43777,16.4135 25.52385,20.68291 9.85769,4.17274 24.25852,3.84078 31.88488,3.84199 0,0 0.008,-5.77238 0.002,-8.69988 z"
         id="path7628"
         sodipodi:nodetypes="ccscsccc" /><path
         style="opacity:1;fill:url(#radialGradient8412);fill-opacity:1;fill-rule:evenodd;stroke-width:315.953;paint-order:fill markers stroke"
         d="m 495.71042,-24.199193 c 0.5386,2.83006 0.62173,2.91893 0.92829,5.78017 0.4841,2.66943 0.036,10.5404995 -0.66417,13.2296795 0,0 2.37087,-1.10933 3.37852,-1.61695 2.25467,-1.13582 4.68357,-1.91463 7.11274,-2.60222 3.06632,-0.8679395 6.26421,-1.1856995 9.368,-1.9082895 3.55179,-0.82689 7.19817,-1.41693 10.58235,-2.77571 2.76248,-1.10916 8.47019,-4.62914 8.47019,-4.62914 0.01,-2.34144 -1.35385,-9.45892 -1.74097,-11.158281 -0.52053,-2.28535 -1.10612,-4.54901 -1.79988,-6.77661 0,0 -1.6547,1.21089 -2.49378,1.79986 -1.51136,1.06086 -2.99381,2.16995 -4.57557,3.12267 -1.91115,1.15112 -3.87569,2.229311 -5.92008,3.122661 -1.49572,0.65359 -3.08843,1.15738 -4.61891,1.62638 -1.53048,0.469 -2.78133,0.81702 -4.30856,1.17736 -1.53846,0.36299 -3.59962,0.76632 -4.97796,0.97583 -1.53666,0.23358 -2.99895,0.3508 -4.54862,0.47072 -1.40037,0.10837 -4.19159,0.16187 -4.19159,0.16187 z"
         id="path7672"
         sodipodi:nodetypes="cccssascccsaazsssc" /><path
         style="opacity:1;fill:url(#radialGradient8117);fill-opacity:1;fill-rule:evenodd;stroke-width:315.953;paint-order:fill markers stroke"
         d="m 401.34046,12.287286 c 0,0 -3.38193,-6.0995695 -3.05513,-7.9805595 0.29777,-1.71395 0.96945,-3.39294001 1.9083,-4.85747001 1.12567,-1.75594999 2.58195,-3.38348999 4.33703,-4.51051999 2.06211,-1.32419 4.7259,-2.42956 7.28621,-3.03592 2.00256,-0.47427 4.10087,-0.46391 6.1586,-0.4337 2.03381,0.0299 4.11839,0.0403 6.07183,0.60718 2.11498,0.6138 4.03428,1.80151 5.90453,2.96407 5.8027,3.60701 10.85422,8.86076 16.35273,12.35619 0,0 -8.1823,-4.78499 -12.59394,-6.76619001 -1.82204,-0.81825 -3.62867,-1.56664 -5.52972,-2.08177999 -1.69864,-0.4603 -3.43752,-0.79985 -5.20444,-0.88908 -1.79872,-0.0908 -3.61645,-0.0579 -5.3996,0.19516 -1.97014,0.27962 -3.92763,0.75235 -5.78996,1.45290999 -1.49785,0.56345 -2.97964,1.28402 -4.27196,2.19020001 -1.14027,0.79956 -2.22631,1.70984 -3.12267,2.7757 -0.91924,1.09307 -1.35073,1.8401 -2.04668,3.08729 -0.50406,0.90332 -0.76212,2.8451695 -0.76212,2.8451695 z"
         id="path8051"
         sodipodi:nodetypes="csssaaaacsasaassscc" /><path
         style="opacity:1;fill:url(#linearGradient8125);fill-opacity:1;fill-rule:evenodd;stroke-width:315.953;paint-order:fill markers stroke"
         d="m 443.3876,52.098126 14.50086,0.0163 0.0759,-14.40343 c 0.1363,-25.85872 61.12944,-9.64311 66.31472,-10.1919 -18.85439,27.93241 -51.21195,30.27602 -61.17533,31.81001 -6.77653,1.04333 -19.71494,1.47023 -19.71494,1.47023 0,0 0.005,-5.81645 -0.002,-8.70121 z"
         id="path8123"
         sodipodi:nodetypes="ccscsccc" /></g><g
       inkscape:groupmode="layer"
       id="layer6-0"
       inkscape:label="Light"
       style="fill:url(#linearGradient8665);fill-opacity:1;stroke-width:31.5953"
       transform="matrix(0.47569689,0,0,0.47602399,268.24255,47.905329)"><path
         style="opacity:1;fill:url(#linearGradient8691);fill-opacity:1;fill-rule:evenodd;stroke-width:315.953;paint-order:fill markers stroke;filter:url(#filter8689)"
         d="m 427.59724,-130.79786 c 0,0 -9.6476,1.39924 -13.98438,2.94407 -3.5667,1.27052 -8.91892,2.81474 -12.92751,4.8647 -3.19338,1.63307 -6.461,3.84708 -9.07607,6.30186 -2.65919,2.49621 -5.60889,5.0694 -7.88062,7.92273 -2.23257,2.80414 -5.01491,6.08688 -6.82742,9.179188 -1.79402,3.060758 -1.43424,6.156208 -2.40621,9.568248 -1.10354,3.87391 0.95443,8.52168 1.20204,12.54208 0.18049,2.93056 1.04313,5.7985 1.96272,8.58689 1.34196,4.0691 2.86915,8.1505 5.15213,11.7763 1.66839,2.64972 3.72596,5.11278 6.13349,7.11485 2.62063,2.17928 5.5343,4.29151 8.83222,5.15213 4.5111,1.17721 9.35557,0.31153 13.98436,-0.24534 2.70883,-0.32589 5.44012,-0.81628 7.98437,-1.80156 4.47413,-1.73265 8.3773,-4.68144 12.51233,-7.11485 3.79552,-2.23361 7.46223,-4.68394 11.28562,-6.86951 2.25525,-1.28918 4.4658,-2.69505 6.86951,-3.6801 4.02274,-1.64854 8.24794,-2.83442 12.51233,-3.68009 6.85662,-1.35974 14.63222,-1.86451 20.85387,-2.20805 4.00314,-0.19836 12.02164,0.24533 12.02164,0.24533 0,0 -7.18203,-0.97785 -10.79495,-1.22669 -3.34605,-0.23046 -6.70787,-0.385 -10.05893,-0.24534 -3.04084,0.12673 -6.06405,0.55525 -9.07756,0.98136 -3.2882,0.46495 -6.58192,0.95268 -9.81358,1.71737 -3.32345,0.78641 -6.54152,1.96561 -9.81358,2.94408 -2.12572,0.63567 -4.25466,1.26059 -6.37885,1.90138 -1.94421,0.5865 -3.96431,0.96937 -5.82681,1.77871 -2.1002,0.91263 -3.99814,2.2364 -5.94947,3.43476 -1.91357,1.17516 -3.55835,2.84484 -5.64284,3.6801 -4.556,1.8256 -9.56692,2.71929 -14.47503,2.69873 -3.41618,-0.0143 -7.02056,-0.40106 -10.05893,-1.96272 -3.60166,-1.85118 -6.59508,-4.96604 -8.83222,-8.34154 -2.45881,-3.70998 -3.781,-8.14946 -4.66145,-12.51232 -0.7772,-3.8512 -1.62171,-8.01378 -0.49067,-11.7763 2.20156,-7.32373 2.44843,-14.096976 6.37882,-19.872516 2.16793,-3.18568 8.34852,-8.46601 11.3626,-10.8668 3.75812,-2.99344 7.98604,-5.4751 12.43535,-7.28833 4.29205,-1.74914 13.49306,-3.35675 13.49306,-3.35675 z"
         id="path8584"
         sodipodi:nodetypes="cssssssssssssssssaccssssssssssssssssacc" /><path
         style="opacity:1;fill:url(#linearGradient9701);fill-opacity:1;fill-rule:evenodd;stroke-width:315.953;paint-order:fill markers stroke"
         d="m 389.22848,4.7530165 c 2.20106,-1.40507 3.79386,-3.63545 5.98851,-5.05051001 2.09611,-1.35153999 3.70905,-2.23226999 6.75427,-3.21916999 3.04522,-0.9869 7.94483,-1.98102 11.3358,-2.23103 3.39097,-0.25 5.83809,0.24256 8.75782,0.34569 2.36406,0.0835 4.46079,-0.84684 7.09317,0.22111 2.05307,0.83292 6.13093,1.57044 6.13093,1.57044 -2.1121,-1.6322 -4.52381,-3.71427 -6.66035,-4.85816 -1.6283,-0.87178 -4.05729,-1.7396995 -6.21576,-2.4061795 -2.97284,-0.91794 -6.41892,-1.52582 -9.24115,-1.7059 -2.59679,-0.1657 -4.89407,0.0651 -7.32434,0.42361 -2.40122,0.35425 -4.74245,1.07463 -6.84587,1.84148 -2.31968,0.8456895 -4.51541,1.6758795 -6.47862,2.9688595 -1.83431,1.20808 -3.80593,2.74092 -5.12913,4.0225 -1.3232,1.28158 -2.05799,2.05446 -2.79647,3.28955999 -1.463,2.44682001 -2.52425,5.31234001 -3.11782,7.96314001 3.11887,-0.27806 5.16616,-1.57587 7.74901,-3.17543 z"
         id="path9621"
         sodipodi:nodetypes="cazzascsssssszaccc" /></g></g><g
     inkscape:groupmode="layer"
     id="layer6"
     inkscape:label="red-gray sp"
     transform="matrix(0.03269788,0,0,0.03269788,-26.718698,2.4810319)"
     style="stroke-width:30.5831"
     sodipodi:insensitive="true"><g
       inkscape:groupmode="layer"
       id="layer3"
       inkscape:label="P"
       transform="translate(353.28905,-1.962717)"
       style="stroke-width:30.5831"><path
         id="path359"
         style="fill:#4d4d4d;fill-opacity:0.59375;fill-rule:evenodd;stroke-width:305.831;paint-order:fill markers stroke"
         d="M -268.334,65.690948 V 251.16773 l 30.26791,-0.1224 v -75.71198 l 40.31279,-0.59221 c 71.57264,-4.21545 60.09218,-104.805416 -2.65152,-108.745301 z m 61.54249,24.674463 c 21.99449,-0.02126 30.71624,17.290679 31.18569,31.206879 0.46772,13.86529 -7.69622,28.70794 -32.77164,29.33826 l -29.63282,0.0946 -0.077,-60.60922 z"
         sodipodi:nodetypes="ccccccccscccc" /></g><g
       inkscape:groupmode="layer"
       id="layer8"
       inkscape:label="S"
       style="fill:#d40000;stroke-width:30.5831"><path
         style="opacity:1;fill:#aa0000;fill-opacity:1;fill-rule:evenodd;stroke-width:305.831;paint-order:fill markers stroke"
         d="m 128.72313,125.94743 c 0,0 -0.61873,-9.88883 -2.08178,-14.57243 -1.15664,-3.70271 -2.67619,-7.4668 -5.20444,-10.40888 -1.56851,-1.825251 -6.24006,-4.219626 -6.24006,-4.219626 l -0.036,-8.363029 29.6526,0.0053 c 5.50154,6.407343 7.01105,9.420874 6.80914,17.434875 -0.0958,3.51618 -0.76698,7.02716 -1.73481,10.40888 -0.99873,3.48967 -4.16355,10.06191 -4.16355,10.06191 z"
         id="path3085"
         sodipodi:nodetypes="cssccccscc" /><path
         style="opacity:1;fill:#d40000;fill-opacity:1;fill-rule:evenodd;stroke-width:305.831;paint-order:fill markers stroke"
         d="m 84.9191,66.269859 c 0,0 -7.173286,1.388332 -10.669101,2.428737 -7.544344,2.491247 -16.618773,6.176143 -22.379089,10.755841 -6.641885,5.412544 -12.370308,12.112666 -16.827687,19.429908 -3.179784,6.685065 -6.953559,15.826555 -7.806658,24.287385 -1.003884,9.95628 0.212276,21.91886 3.296145,29.83878 1.557562,3.86816 3.990637,7.46026 6.939253,10.40888 4.717784,4.71778 10.453998,8.63857 16.654203,11.1028 5.124061,2.03652 10.795823,2.60942 16.307245,2.77571 5.348995,0.16139 10.742288,-0.54724 15.96028,-1.73482 6.098989,-1.38809 11.778694,-4.21536 17.695089,-6.24532 9.34025,-3.20471 18.33645,-6.65171 27.23657,-10.92933 6.33207,-3.04335 18.5625,-9.76576 18.5625,-9.76576 0,0 3.88627,-0.48471 6.04028,-1.04089 2.62142,-0.67687 5.76939,-1.67612 8.18519,-2.89837 1.86043,-0.94126 3.62113,-2.11305 5.20444,-3.46963 1.42971,-1.22497 3.57125,-4.28621 3.57125,-4.28621 -7.14017,-7.23993 -12.31653,-8.56501 -21.26635,-10.28622 -2.85875,-0.55482 -5.76466,-0.91554 -8.67406,-1.04088 -6.93667,-0.29883 -13.93329,-0.20656 -20.81776,0.69392 -6.11995,0.80048 -12.11557,2.4398 -18.04206,4.16355 -8.541845,2.83357 -19.281513,7.98145 -28.103967,4.16355 -5.377837,-2.32725 -8.336523,-8.62198 -9.021029,-13.8785 -0.756372,-7.91971 2.521421,-12.17952 8.153621,-16.82769 2.909265,-2.37386 9.801694,-5.551399 9.801694,-5.551399 z"
         id="path3087"
         sodipodi:nodetypes="ccccacsssssscsssccsscscccc" /><path
         style="opacity:1;fill:#aa0000;fill-opacity:1;fill-rule:evenodd;stroke-width:305.831;paint-order:fill markers stroke"
         d="m 153.00499,172.76569 c 1.72011,7.80131 2.01206,17.51588 -2.18509,24.59651 -7.26766,12.26058 -20.54234,21.41469 -35.54774,23.76183 l -0.0595,27.95483 19.93621,0.002 c 10.98957,0.0398 25.7702,-6.74264 35.77745,-14.91577 8.23415,-6.72501 14.80584,-16.22432 17.90556,-26.39382 4.61005,-15.12452 5.31051,-29.33956 -0.20687,-47.43406 0,0 -4.57736,3.39962 -7.02163,4.85748 -2.35975,1.40745 -4.78293,2.75006 -7.34755,3.736 -3.38799,1.30247 -8.2321,2.39484 -10.51295,2.83768 -3.24221,0.84094 -10.49326,1.12085 -10.73789,0.99732 z"
         id="path3143"
         sodipodi:nodetypes="cacccaacaacc" /><path
         style="opacity:1;fill:#aa0000;fill-opacity:1;fill-rule:evenodd;stroke-width:305.831;paint-order:fill markers stroke"
         d="m 84.962468,222.55781 c -10.083969,0.80983 -24.583324,-1.10636 -27.132787,-11.57988 -0.923769,-4.41954 1.890198,-9.47989 5.263967,-12.48045 4.501001,-4.00309 11.341002,-5.35066 17.356151,-5.03169 8.368351,0.44376 23.270351,9.51455 23.270351,9.51455 0,0 -12.383771,-13.05705 -18.914106,-15.88911 -6.530335,-2.83206 -12.253701,-2.75782 -17.876758,-2.15006 -12.499982,1.84534 -19.526514,4.86177 -25.573984,14.70605 -6.245012,10.20466 -3.156604,27.42043 3.217065,35.44972 6.525435,8.22048 15.782453,14.09128 28.15967,14.08728 l 12.395569,-0.004 z"
         id="path3145"
         sodipodi:nodetypes="ccaaccccsscc" /></g></g></svg>
